<?xml version="1.0" standalone="no"?>
<!DOCTYPE svg PUBLIC "-//W3C//DTD SVG 20010904//EN"
 "http://www.w3.org/TR/2001/REC-SVG-20010904/DTD/svg10.dtd">
<svg version="1.0" xmlns="http://www.w3.org/2000/svg"
 width="512.000000pt" height="512.000000pt" viewBox="0 0 512.000000 512.000000"
 preserveAspectRatio="xMidYMid meet">
<metadata>
Created by potrace 1.14, written by Peter Selinger 2001-2017
</metadata>
<g transform="translate(0.000000,512.000000) scale(0.100000,-0.100000)"
fill="#000000" stroke="none">
<path d="M2980 4499 c-123 -12 -290 -47 -409 -85 -105 -34 -1844 -802 -1892
-835 -39 -27 -62 -83 -56 -135 8 -75 32 -96 222 -191 96 -49 175 -91 175 -94
0 -3 -215 -110 -477 -238 -313 -152 -487 -242 -505 -261 -46 -50 -49 -140 -7
-195 20 -24 268 -150 832 -422 86 -42 157 -79 157 -82 0 -3 -80 -46 -178 -96
-140 -71 -182 -97 -199 -124 -43 -64 -23 -165 39 -205 30 -19 1755 -787 1833
-816 341 -125 774 -144 1140 -50 462 119 873 411 1139 810 393 589 433 1349
104 1980 -366 703 -1127 1115 -1918 1039z m445 -614 c421 -88 765 -352 953
-730 150 -302 178 -671 76 -996 -135 -433 -506 -788 -939 -898 -239 -60 -503
-57 -728 10 -355 105 -667 371 -827 704 -95 197 -134 370 -133 590 0 279 72
514 231 755 65 98 228 267 322 333 186 130 402 217 616 246 97 14 334 6 429
-14z"/>
<path d="M3092 3290 c-18 -11 -41 -34 -52 -52 -19 -31 -20 -51 -20 -378 0
-327 1 -347 20 -378 11 -18 34 -41 52 -52 31 -19 51 -20 378 -20 327 0 347 1
378 20 96 59 96 201 0 260 -31 18 -51 20 -280 20 l-248 0 0 248 c0 229 -2 249
-20 280 -28 45 -76 72 -130 72 -27 0 -58 -8 -78 -20z"/>
</g>
</svg>
